<svg id="Layer_1" data-name="Layer 1" xmlns="http://www.w3.org/2000/svg" viewBox="0 0 53.01 59.35"><defs><style>.cls-1{fill:#fafbfc;}.cls-2{fill:#878f97;}.cls-3{fill:#afb3b9;}.cls-4{fill:#231f1f;}.cls-5{fill:none;stroke:#231f1f;stroke-miterlimit:10;}</style></defs><title>SDS logo</title><path class="cls-1" d="M55.84,41V19.26A7.18,7.18,0,0,0,52.24,13L33.39,2.14a7.23,7.23,0,0,0-7.2,0L7.34,13a7.18,7.18,0,0,0-3.6,6.23V41a7.2,7.2,0,0,0,3.6,6.24L26.19,58.15a7.18,7.18,0,0,0,7.2,0L52.24,47.27A7.2,7.2,0,0,0,55.84,41Z" transform="translate(-3.28 -0.33)"/><polygon class="cls-2" points="0.45 41.24 0.45 16.43 3.72 12.89 19.91 41.24 0.45 41.24"/><polygon class="cls-2" points="52.56 18.24 52.21 43.22 49.97 46.73 33.1 18.24 52.56 18.24"/><polygon class="cls-3" points="29.79 2.12 34.81 4.9 20.36 18.24 29.79 2.12"/><polygon class="cls-3" points="23.47 57.82 18.48 54.98 33.1 40.91 23.47 57.82"/><polygon class="cls-1" points="33.1 18.4 19.91 18.4 13.32 29.82 19.91 41.24 33.1 41.24 39.7 29.82 33.1 18.4"/><path class="cls-4" d="M35.25,42H24.33a2.44,2.44,0,0,1-2.1-1.2l-5.46-9.46a2.43,2.43,0,0,1,0-2.42l5.47-9.46a2.42,2.42,0,0,1,2.09-1.21H35.25a2.43,2.43,0,0,1,2.09,1.21l5.46,9.46a2.38,2.38,0,0,1,0,2.42l-5.46,9.46A2.42,2.42,0,0,1,35.25,42ZM24.33,19.18a1.52,1.52,0,0,0-1.31.75l-5.46,9.46a1.51,1.51,0,0,0,0,1.51L23,40.36a1.51,1.51,0,0,0,1.31.76H35.25a1.51,1.51,0,0,0,1.31-.76L42,30.9a1.51,1.51,0,0,0,0-1.51l-5.46-9.46a1.52,1.52,0,0,0-1.31-.75Z" transform="translate(-3.28 -0.33)"/><path class="cls-5" d="M36.38,18.73" transform="translate(-3.28 -0.33)"/><rect class="cls-4" x="11.48" y="11.61" width="0.91" height="20.93" transform="translate(-12.72 8.6) rotate(-30)"/><rect class="cls-4" x="0.45" y="40.79" width="20.59" height="0.91"/><rect class="cls-4" x="21.36" y="49.14" width="20.79" height="0.91" transform="translate(-30.35 51.95) rotate(-59.98)"/><rect class="cls-4" x="8.39" y="15.47" width="32.85" height="0.91" transform="translate(-4.67 29.11) rotate(-59.98)"/><rect class="cls-4" x="47.11" y="27.79" width="0.91" height="20.59" transform="translate(-15.95 28.55) rotate(-30)"/><rect class="cls-4" x="31.97" y="17.95" width="20.59" height="0.91"/><path class="cls-4" d="M29.79,59.67a7,7,0,0,1-3.49-.93L6.77,47.47a7,7,0,0,1-3.49-6V18.88a7,7,0,0,1,3.49-6L27.26,1a5.08,5.08,0,0,1,5.06,0L52.81,12.83a7,7,0,0,1,3.49,6V41.42a7,7,0,0,1-3.49,6L33.28,58.74A7,7,0,0,1,29.79,59.67Zm0-58.44a4.16,4.16,0,0,0-2.08.56L7.23,13.61a6.1,6.1,0,0,0-3,5.27V41.42a6.07,6.07,0,0,0,3,5.26L26.75,58a6.11,6.11,0,0,0,6.08,0L52.35,46.68a6.07,6.07,0,0,0,3-5.26V18.88a6.1,6.1,0,0,0-3-5.27L31.87,1.79A4.16,4.16,0,0,0,29.79,1.23Z" transform="translate(-3.28 -0.33)"/></svg>